<?xml version="1.0" standalone="no"?>
<!DOCTYPE svg PUBLIC "-//W3C//DTD SVG 20010904//EN"
 "http://www.w3.org/TR/2001/REC-SVG-20010904/DTD/svg10.dtd">
<svg version="1.0" xmlns="http://www.w3.org/2000/svg"
 width="151.000000pt" height="151.000000pt" viewBox="0 0 151.000000 151.000000"
 preserveAspectRatio="xMidYMid meet">
<metadata>
Created by potrace 1.14, written by Peter Selinger 2001-2017
</metadata>
<g transform="translate(0.000000,151.000000) scale(0.100000,-0.100000)"
fill="#000000" stroke="none">
<path d="M125 1485 c-49 -17 -90 -62 -104 -112 -7 -25 -11 -246 -11 -633 l0
-596 23 -44 c12 -25 37 -55 56 -67 l34 -23 637 0 637 0 34 23 c19 12 44 42 56
67 l23 44 0 596 c0 401 -4 608 -11 635 -14 50 -64 100 -114 114 -27 7 -231 11
-630 11 -482 -1 -597 -3 -630 -15z m782 -253 c77 -40 103 -102 102 -236 -1
-120 -23 -176 -86 -216 -13 -8 -14 -13 -5 -17 30 -12 76 -60 90 -93 8 -19 17
-81 20 -140 6 -134 -11 -199 -65 -253 -54 -55 -107 -67 -290 -67 l-153 0 0
526 0 526 173 -4 c154 -3 176 -6 214 -26z"/>
<path d="M682 973 l3 -138 42 -3 c51 -4 100 20 113 54 13 34 13 136 0 170 -16
41 -39 53 -103 54 l-58 0 3 -137z"/>
<path d="M680 520 l0 -160 68 0 c54 0 73 4 89 19 44 41 42 233 -2 277 -20 20
-34 24 -90 24 l-65 0 0 -160z"/>
</g>
</svg>
